<?xml version="1.0" encoding="UTF-8"?>
<svg xmlns="http://www.w3.org/2000/svg" xmlns:xlink="http://www.w3.org/1999/xlink" width="50px" height="50px" viewBox="0 0 50 50" version="1.1">
<g id="surface1">
<path style=" stroke:none;fill-rule:nonzero;fill:rgb(0%,0%,0%);fill-opacity:1;" d="M 34.804688 25.609375 C 33.992188 24.796875 32.671875 24.796875 31.859375 25.609375 L 27.085938 30.386719 L 27.085938 14.585938 C 27.085938 13.433594 26.148438 12.5 25 12.5 C 23.851562 12.5 22.914062 13.433594 22.914062 14.585938 L 22.914062 30.386719 L 18.140625 25.609375 C 17.328125 24.796875 16.007812 24.796875 15.195312 25.609375 C 14.382812 26.421875 14.382812 27.742188 15.195312 28.554688 L 23.527344 36.890625 C 24.339844 37.703125 25.660156 37.703125 26.472656 36.890625 L 34.804688 28.554688 C 35.617188 27.742188 35.617188 26.421875 34.804688 25.609375 Z M 34.804688 25.609375 "/>
<path style=" stroke:none;fill-rule:evenodd;fill:rgb(0%,0%,0%);fill-opacity:1;" d="M 47.914062 25 C 47.914062 12.34375 37.65625 2.085938 25 2.085938 C 12.34375 2.085938 2.085938 12.34375 2.085938 25 C 2.085938 37.65625 12.34375 47.914062 25 47.914062 C 37.65625 47.914062 47.914062 37.65625 47.914062 25 Z M 25 6.25 C 35.355469 6.25 43.75 14.644531 43.75 25 C 43.75 35.355469 35.355469 43.75 25 43.75 C 14.644531 43.75 6.25 35.355469 6.25 25 C 6.25 14.644531 14.644531 6.25 25 6.25 Z M 25 6.25 "/>
</g>
</svg>
